<?xml version="1.0" standalone="no"?><!DOCTYPE svg PUBLIC "-//W3C//DTD SVG 1.1//EN" "http://www.w3.org/Graphics/SVG/1.1/DTD/svg11.dtd"><svg t="1764825816707" class="icon" viewBox="0 0 1024 1024" version="1.1" xmlns="http://www.w3.org/2000/svg" p-id="14967" xmlns:xlink="http://www.w3.org/1999/xlink" width="200" height="200"><path d="M181.546667 178.773333m48.64 0l564.053333 0q48.64 0 48.64 48.64l0 564.053334q0 48.64-48.64 48.64l-564.053333 0q-48.64 0-48.64-48.64l0-564.053334q0-48.64 48.64-48.64Z" fill="#666AFF" fill-opacity=".4" p-id="14968"></path><path d="M853.333333 488.106667H170.666667a21.333333 21.333333 0 0 0 0 42.666666h682.666666a21.333333 21.333333 0 0 0 0-42.666666zM640 200.106667h158.506667a22.613333 22.613333 0 0 1 22.826666 21.333333v160a21.333333 21.333333 0 1 0 42.666667 0v-160a64 64 0 0 0-65.493333-64H640a21.333333 21.333333 0 1 0 0 42.666667zM181.546667 402.773333a21.333333 21.333333 0 0 0 21.333333-21.333333v-160a21.333333 21.333333 0 0 1 22.613333-21.333333H384a21.333333 21.333333 0 0 0 0-42.666667h-158.506667a64 64 0 0 0-65.28 64v160a21.333333 21.333333 0 0 0 21.333334 21.333333zM384 818.773333h-160a21.333333 21.333333 0 0 1-21.333333-21.333333v-160a21.333333 21.333333 0 0 0-42.666667 0v160a64 64 0 0 0 65.28 64H384a21.333333 21.333333 0 0 0 0-42.666667zM842.88 616.106667a21.333333 21.333333 0 0 0-21.333333 21.333333v160a22.613333 22.613333 0 0 1-22.826667 21.333333H640a21.333333 21.333333 0 1 0 0 42.666667h158.506667a64 64 0 0 0 65.493333-64v-160a21.333333 21.333333 0 0 0-21.12-21.333333z" fill="#666AFF" p-id="14969"></path></svg>