<?xml version="1.0" standalone="no"?><!DOCTYPE svg PUBLIC "-//W3C//DTD SVG 1.1//EN" "http://www.w3.org/Graphics/SVG/1.1/DTD/svg11.dtd"><svg t="1765349728054" class="icon" viewBox="0 0 1024 1024" version="1.1" xmlns="http://www.w3.org/2000/svg" p-id="34852" xmlns:xlink="http://www.w3.org/1999/xlink" width="200" height="200"><path d="M936.085014 762.755377a99.902342 99.902342 0 0 0 12.987304-49.201903V302.205582a99.902342 99.902342 0 0 0-48.502587-85.666258l-337.170403-202.302241a99.902342 99.902342 0 0 0-102.799509 0l-337.170403 202.302241A99.902342 99.902342 0 0 0 74.926829 302.205582v411.347892A99.902342 99.902342 0 0 0 123.429416 799.219731l337.170403 202.302242a99.902342 99.902342 0 0 0 102.799509 0l337.170403-202.302242a99.902342 99.902342 0 0 0 35.540258-36.464354zM535.052039 236.769549l117.784861 117.809836c13.087207 13.112182 13.087207 26.199389 0 39.286596s-26.174413 13.087207-39.286596 0l-64.536913-64.561889v342.415276l64.536913-64.561888c13.087207-13.087207 26.174413-13.087207 39.26162 0 13.112182 13.087207 13.112182 26.199389 0 39.286596l-117.784861 117.78486c-13.087207 13.087207-26.174413 13.087207-39.26162 0a53.197997 53.197997 0 0 1-1.29873-1.323706l-116.486131-116.48613c-13.087207-13.087207-13.087207-26.199389 0-39.286596s26.174413-13.087207 39.286596 0l65.111351 65.136327V328.679703l-65.186278 65.186278c-13.087207 13.087207-26.174413 13.087207-39.26162 0-13.087207-13.112182-13.087207-26.199389 0-39.286596l117.784861-117.809836c4.570532-4.570532 9.16604-7.542627 13.736572-8.916284 8.516675-2.597461 17.058325 0.374634 25.599975 8.916284z" fill="#8093E1" p-id="34853"></path></svg>