<?xml version="1.0" standalone="no"?><!DOCTYPE svg PUBLIC "-//W3C//DTD SVG 1.1//EN" "http://www.w3.org/Graphics/SVG/1.1/DTD/svg11.dtd"><svg t="1765349838240" class="icon" viewBox="0 0 1024 1024" version="1.1" xmlns="http://www.w3.org/2000/svg" p-id="40530" xmlns:xlink="http://www.w3.org/1999/xlink" width="200" height="200"><path d="M388.181333 629.361778l24.604445-13.624889 94.520889 54.499555v-134.257777l-18.887111-9.756445-94.549334-56.433778v110.933334l-20.792889 11.662222-79.416889-46.705778L199.111111 600.177778v112.867555l94.549333 54.499556 94.520889-54.499556v-83.683555z m289.28-36.977778l-18.887111-11.662222v-110.933334l-113.436444 66.161778v134.286222l94.520889-54.499555 24.604444 13.653333v83.655111l94.520889 54.499556L853.333333 713.045333V600.177778l-94.549333-54.499556-81.294222 46.705778z m0-350.293333v89.514666l100.238223 56.433778V489.244444l9.443555 5.831112L853.333333 534.016V341.333333l-175.843555-99.271111z m-56.689777 511.829333L526.222222 806.485333l-94.549333-52.565333-15.104 9.728-62.407111 35.043556L526.222222 896l172.088889-97.308444-62.435555-35.043556-15.104-9.728zM274.744889 489.244444v-101.205333l100.209778-56.433778V242.062222L199.111111 341.333333v192.682667l66.190222-38.940444 9.443556-5.831112z m138.040889-52.536888l113.436444 66.161777 18.915556-11.662222 94.520889-54.499555-94.520889-54.499556v-13.653333l75.633778-44.743111v-110.933334L526.222222 156.444444l-94.549333 56.433778v110.933334l75.662222 44.771555v13.624889l-94.549333 54.499556z" fill="#E95890" p-id="40531"></path></svg>