<?xml version="1.0" standalone="no"?><!DOCTYPE svg PUBLIC "-//W3C//DTD SVG 1.1//EN" "http://www.w3.org/Graphics/SVG/1.1/DTD/svg11.dtd"><svg t="1765349418737" class="icon" viewBox="0 0 1024 1024" version="1.1" xmlns="http://www.w3.org/2000/svg" p-id="18842" xmlns:xlink="http://www.w3.org/1999/xlink" width="200" height="200"><path d="M512 992C246.896 992 32 777.104 32 512S246.896 32 512 32s480 214.896 480 480-214.896 480-480 480z m4.416-676.992A74.88 74.88 0 0 0 591.44 240.32a74.88 74.88 0 0 0-75.048-74.712 74.88 74.88 0 0 0-75.072 74.712 74.88 74.88 0 0 0 75.072 74.712z m119.184 105.288c-12.048-51.528-38.856-92.88-73.008-112.752a81.696 81.696 0 0 1-46.176 14.256c-17.136 0-33.024-5.28-46.2-14.256-34.752 20.256-61.944 62.688-73.68 115.512 25.824 24.984 69.12 41.4 118.224 41.4 50.88 0 95.424-17.64 120.84-44.16z m-339.72 234.336a74.88 74.88 0 0 0 75.048-74.712 74.88 74.88 0 0 0-75.048-74.712 74.88 74.88 0 0 0-75.072 74.712 74.88 74.88 0 0 0 75.072 74.712z m119.184 105.288c-12.048-51.528-38.856-92.88-73.008-112.752a81.672 81.672 0 0 1-46.176 14.256c-17.136 0-33.048-5.28-46.2-14.256-34.776 20.232-61.92 62.688-73.68 115.512 25.824 24.984 69.12 41.4 118.224 41.4 50.856 0 95.424-17.64 120.84-44.16z m326.16-105.288a74.88 74.88 0 0 0 75.072-74.712 74.88 74.88 0 0 0-75.048-74.712 74.88 74.88 0 0 0-75.072 74.712 74.88 74.88 0 0 0 75.072 74.712z m119.232 105.288c-12.072-51.528-38.88-92.88-73.032-112.752a81.672 81.672 0 0 1-46.176 14.256c-17.136 0-33.024-5.28-46.2-14.256-34.776 20.232-61.92 62.688-73.68 115.512 25.824 24.984 69.12 41.4 118.224 41.4 50.88 0 95.424-17.64 120.864-44.16zM275.936 491.6a13.632 13.632 0 0 0 13.44-11.328c11.832-70.632 81.408-83.424 84.384-83.928a13.584 13.584 0 1 0-4.56-26.784c-31.632 5.232-94.68 34.2-106.728 106.248a13.584 13.584 0 0 0 13.464 15.816z m491.28 0a13.584 13.584 0 0 0 13.464-15.816c-12.048-72.024-75.12-100.992-106.752-106.224a13.608 13.608 0 0 0-4.536 26.784c2.976 0.48 72.552 13.296 84.384 83.928a13.632 13.632 0 0 0 13.44 11.352zM515.744 861.68c36.36 0 78.096-8.064 121.632-32.16a13.536 13.536 0 0 0 5.304-18.48 13.632 13.632 0 0 0-18.552-5.256c-113.88 62.952-213.744 3.072-218.16 0.336a13.68 13.68 0 0 0-18.792 4.32 13.56 13.56 0 0 0 4.32 18.72c3.144 1.968 53.448 32.496 124.248 32.496z m0.672-414.216l-23.88-17.808 17.904-83.208-11.928-11.904s5.952-5.952 17.904-5.952c11.928 0 17.904 5.952 17.904 5.952l-11.952 11.904 17.928 83.208-23.88 17.808z m-220.56 339.624L272 769.28l17.928-83.208-11.952-11.904s5.976-5.952 17.928-5.952c11.928 0 17.904 5.952 17.904 5.952l-11.952 11.904 17.928 83.208-23.88 17.808z m445.392 0l-23.904-17.808 17.928-83.208-11.928-11.904s5.952-5.952 17.904-5.952c11.928 0 17.904 5.952 17.904 5.952l-11.952 11.904 17.928 83.208-23.88 17.808z" fill="#1296db" p-id="18843"></path></svg>