<?xml version="1.0" standalone="no"?><!DOCTYPE svg PUBLIC "-//W3C//DTD SVG 1.1//EN" "http://www.w3.org/Graphics/SVG/1.1/DTD/svg11.dtd"><svg t="1765350475532" class="icon" viewBox="0 0 1024 1024" version="1.1" xmlns="http://www.w3.org/2000/svg" p-id="80958" xmlns:xlink="http://www.w3.org/1999/xlink" width="200" height="200"><path d="M703.95057 445.031303a276.714007 276.714007 0 1 0 0 553.381491 276.714007 276.714007 0 0 0 0-553.381491z m111.188043 288.577165c22.423697 0 39.543864 7.769206 51.732679 24.051975 10.60706 13.817091 16.282768 32.565535 16.282767 55.733587 0 22.795875-5.675708 41.544319-16.282767 55.826632-12.188815 15.445368-29.308982 23.586752-51.686157 23.586752-22.795875 0-40.28822-8.141384-52.523557-23.633274-10.979238-14.654491-16.282768-32.984235-16.282767-55.78011 0-23.168052 5.30353-41.869974 16.282767-55.733587 12.235337-16.282768 29.727682-24.051974 52.523557-24.051975z m-40.241698-137.147426h33.356413l-163.246377 302.02208h-32.937713l162.827677-302.02208z m-168.968606 5.675708c22.423697 0 39.497342 7.722684 51.732679 24.005452 10.560538 13.863614 16.282768 32.565535 16.282767 55.826632 0 22.795875-5.72223 41.497797-16.282767 55.733588-12.235337 15.445368-29.308982 23.586752-51.732679 23.586752-22.795875 0-40.28822-8.141384-52.477035-23.586752-11.02576-14.654491-16.282768-32.984235-16.282767-55.78011 0-23.214575 5.257008-41.916496 16.282767-55.78011 12.188815-16.282768 29.681159-24.005452 52.477035-24.005452z m209.256826 159.571123c-10.60706 0-18.329744 5.30353-23.214575 15.864068-3.675253 8.560084-5.30353 20.376721-5.30353 35.822089 0 14.654491 1.628277 26.51765 5.30353 35.449912 4.88483 10.560538 12.607514 15.817546 23.214575 15.817545 10.18836 0 17.492345-5.675708 22.377175-16.654945 3.256554-8.560084 5.30353-19.958021 5.30353-34.612512 0-15.026668-2.046977-26.843306-5.72223-35.356867-4.466131-11.02576-11.770115-16.282768-21.958475-16.282767z m-209.256826-131.471718c-10.560538 0-18.283222 5.30353-23.168053 15.864068-3.721775 8.560084-5.30353 20.376721-5.30353 35.822089 0 14.654491 1.628277 26.471128 5.30353 35.403389 4.88483 10.60706 12.560992 15.91059 23.168053 15.91059 10.18836 0 17.538867-5.72223 22.423697-16.74799 3.256554-8.513561 5.257008-19.911499 5.257008-34.565989 0-15.073191-2.000454-26.843306-5.675708-35.40339-4.466131-10.979238-11.816637-16.282768-22.004997-16.282767zM413.233383 46.522193C211.187497 46.522193 47.429376 127.749943 47.429376 227.958748c0 100.301849 163.758121 181.483077 365.804007 181.483077s365.710963-81.22775 365.710963-181.436555C778.944346 127.749943 615.186225 46.522193 413.233383 46.522193z m115.281996 409.488347c-38.148199 6.233974-76.668575 9.350961-115.281996 9.304439-174.13257 0-319.467902-60.339285-356.453046-141.148335a96.30094 96.30094 0 0 0-9.350961 40.288219c0 100.162282 163.758121 181.436554 365.804007 181.436555 9.816183 0 19.399755-0.372178 29.029849-0.697833a317.420926 317.420926 0 0 1 86.252147-89.183045z m240.426695-50.011358c6.327018-13.35187 10.002272-27.215483 10.002272-41.544319 0-13.863614-3.442642-27.308528-9.350961-40.288219-13.165781 28.750716-40.241697 54.896188-77.226841 76.622053 5.210486-0.279133 10.281405-0.790877 15.538413-0.790878 20.469765 0 40.93953 2.046977 61.037117 6.047885zM413.233383 584.783972c-174.13257 0-319.467902-60.385807-356.453046-141.194857-6.001363 12.607514-9.211394 26.331561-9.350961 40.288219 0 97.370951 154.686293 176.551724 348.776885 181.017855a313.745673 313.745673 0 0 1 24.470673-80.297306c-2.465676 0-4.977875 0.186089-7.443551 0.186089z m-20.79542 118.910726c-164.781609-4.652219-300.161192-63.223661-335.657626-140.776157a97.13834 97.13834 0 0 0-9.350961 40.288219c0 97.929217 156.454137 177.52869 352.07996 181.110899a316.071782 316.071782 0 0 1-7.629639-68.387624c0-4.093953 0.372178-8.141384 0.558266-12.235337z m-335.657626-21.307164a97.091818 97.091818 0 0 0-9.350961 40.288219c0 100.208805 163.758121 181.436554 365.804007 181.436554 13.58448 0 26.982872-0.4187 40.148653-1.163054a316.071782 316.071782 0 0 1-42.195629-79.459907c-173.202126-0.465222-317.607015-60.66494-354.40607-141.148335v0.046523z m428.469402 256.942074c-23.307619 2.32611-47.313071 3.628731-71.969833 3.628731-174.086048 0-319.467902-60.339285-356.453047-141.148335-6.001363 12.560992-9.164872 26.331561-9.304438 40.241697C47.382854 942.260506 211.140975 1023.488256 413.140339 1023.488256c59.59493 0 115.654173-7.21094 165.339875-19.72541a314.95525 314.95525 0 0 1-93.370042-64.47976h0.093045z m73.877243-799.39085l-88.717823 84.019081h69.876335v18.608878h-81.413839v25.587206h81.413839v18.841488h-81.413839v37.217755h-41.916496v-37.264277H332.424333v-18.841488h84.484304v-25.587207H332.424333v-18.562355H404.533733L316.606788 139.892236h47.266548c41.032575 41.730408 66.014993 68.201536 74.854209 79.413384h0.8374c2.97742-4.652219 11.165326-13.910136 24.61024-27.866794l50.243969-51.54659h44.661306z" fill="#F59D20" p-id="80959"></path><path d="M349.265367 49.313525l69.411113 147.335787c-12.979692-13.863614-31.216392-32.798146-54.803144-56.757076H316.65331L404.533733 223.911317H332.424333v18.608877h84.484304v25.587207H332.424333v18.794966h84.484304v37.310799H418.955613V409.395302h-5.72223c-202.045886 0-365.804007-81.181228-365.804007-181.436554 0-89.415656 130.262142-163.758121 301.835991-178.738267zM418.955613 465.268457v80.529917l-5.72223 0.046522c-202.045886 0-365.804007-81.274272-365.804007-181.436555 0.139567-13.956658 3.349598-27.727227 9.350961-40.288219 36.985144 80.80905 182.366998 141.194857 356.453046 141.194857H418.955613z m0 123.051201a313.745673 313.745673 0 0 0-22.795875 76.482486c-193.997547-4.466131-348.730362-83.646904-348.730362-180.971332 0.139567-13.956658 3.349598-27.727227 9.350961-40.334742 36.985144 80.80905 182.366998 141.194857 356.453046 141.194857L418.955613 584.597883v3.768298z m0 315.699605h-5.72223c-202.045886 0-365.804007-81.22775-365.804007-181.436554 0-13.863614 3.489165-27.308528 9.350961-40.28822 36.799055 80.483395 181.203943 140.636591 354.40607 141.101813 2.32611 6.606151 4.977875 13.119259 7.769206 19.539321v61.08364z m0 38.846032V1023.488256h-5.72223c-202.045886 0-365.804007-81.22775-365.757485-181.436555 0.186089-13.956658 3.349598-27.727227 9.350961-40.288219 36.985144 80.80905 182.366998 141.148335 356.453047 141.148335H418.955613z m-26.51765-239.263641c-0.186089 4.093953-0.558266 8.141384-0.558266 12.281859 0.046522 22.981964 2.605243 45.917405 7.629639 68.341102-195.625823-3.582209-352.07996-83.181682-352.07996-181.110899 0-13.817091 3.489165-27.308528 9.350961-40.28822 35.496434 77.552496 170.876017 136.17046 335.657626 140.776158z" fill="#FFFFFF" fill-opacity=".2" p-id="80960"></path></svg>