<?xml version="1.0" standalone="no"?><!DOCTYPE svg PUBLIC "-//W3C//DTD SVG 1.1//EN" "http://www.w3.org/Graphics/SVG/1.1/DTD/svg11.dtd"><svg t="1765348850786" class="icon" viewBox="0 0 1024 1024" version="1.1" xmlns="http://www.w3.org/2000/svg" p-id="5235" xmlns:xlink="http://www.w3.org/1999/xlink" width="200" height="200"><path d="M469.412659 1.80224c88.18688-7.35232 178.25792 8.27392 258.4576 45.75232a514.048 514.048 0 0 1 205.47584 173.32224 508.5184 508.5184 0 0 1 86.15936 222.76096c11.776 88.24832 0.38912 179.56864-33.56672 261.91872a512.8192 512.8192 0 0 1-139.71456 193.67936c-88.94464 77.12768-205.16864 121.81504-322.90816 123.84256-25.84576 1.88416-51.87584 0.90112-77.33248-4.03456-110.55104-13.94688-215.79776-65.61792-294.66624-144.32256a510.70976 510.70976 0 0 1-119.11168-184.1152C1.362739 608.44032-7.402701 518.2464 6.236979 431.616A509.44 509.44 0 0 1 120.658739 181.69856a512.8192 512.8192 0 0 1 235.04896-157.36832 509.91104 509.91104 0 0 1 113.70496-22.528z m50.31936 72.25344c18.80064 1.2288 37.33504 7.86432 52.34688 19.33312 12.22656 9.44128 22.17984 23.08096 23.83872 38.78912 1.26976 10.15808-2.33472 21.31968-10.91584 27.40224-8.58112 6.38976-19.8656 6.59456-30.08512 5.55008-1.86368 26.3168-3.70688 52.71552-6.51264 78.97088-1.024 10.48576-6.16448 20.74624-14.92992 26.78784-15.07328 10.73152-34.73408 11.0592-50.52416 20.29568-7.2704 4.1984-13.18912 13.23008-9.68704 21.72928 3.93216 9.37984 13.57824 14.6432 22.67136 18.00192 17.48992 6.08256 36.90496 6.26688 54.72256 1.47456 8.88832-2.88768-0.3072-16.52736 8.54016-18.98496 19.12832-5.59104 40.48896-7.92576 59.63776-1.51552-1.49504 9.216-6.32832 17.36704-10.48576 25.57952-16.75264 31.25248-35.08224 61.66528-51.77344 92.93824-7.33184 18.04288-0.12288 37.5808 0.36864 56.17664 0.02048 15.42144 0.1024 31.21152-4.34176 46.12096-1.29024 4.56704-5.03808 10.48576-10.62912 8.43776-10.26048-5.0176-15.89248-15.81056-22.016-24.90368-11.93984-18.18624-20.0704-38.78912-33.6896-55.808-3.87072 0.98304-7.86432 2.08896-11.93984 1.65888-20.02944-1.6384-38.912-10.5472-59.10528-10.81344-9.25696 0.36864-11.59168 10.9568-13.43488 18.20672-2.10944 6.8608-2.99008 16.65024-11.0592 19.00544-9.728 0.8192-19.456-0.83968-28.8768-2.99008 4.9152 37.96992 7.35232 76.26752 7.72096 114.54464-0.16384 4.73088 5.26336 5.98016 9.0112 5.34528 18.49344-2.41664 36.00384-11.9808 55.00928-9.8304 17.42848 1.8432 31.51872 13.08672 45.09696 23.12192 9.728 7.53664 21.52448 11.81696 31.15008 19.53792 20.2752 14.88896 36.1472 35.10272 57.2416 48.88576 5.81632 4.21888 13.2096 4.38272 19.68128 6.79936 10.5472 6.57408 6.63552 21.77024 14.6432 30.16704 3.62496 3.52256 9.0112 2.62144 13.59872 2.37568 18.00192-1.88416 36.43392 9.19552 43.4176 25.86624 4.1984 9.80992 3.25632 21.38112-1.67936 30.76096-7.3728 15.11424-23.2448 23.32672-32.0512 37.41696-20.6848 30.72-25.74336 68.36224-34.89792 103.44448 7.70048-1.29024 16.4864-2.80576 23.40864 1.86368 3.91168 2.3552 5.55008 6.7584 7.2704 10.73152a438.10816 438.10816 0 0 0 202.32192-115.52768 438.4768 438.4768 0 0 0 110.34624-185.87648c-12.98432 25.68192-31.62112 49.95072-57.79456 63.13984-8.17152 3.72736-18.57536 7.49568-26.91072 2.3552-6.43072-4.97664-4.17792-14.00832-2.51904-20.70528-16.67072-26.9312-35.08224-53.20704-58.32704-74.91584-14.52032-14.09024-26.70592-31.47776-31.45728-51.4048-5.14048-20.72576-0.98304-42.78272 8.3968-61.68576 17.53088-35.08224 47.34976-61.93152 77.76256-85.79072-7.72096-20.91008-6.18496-46.46912 8.88832-63.75424 8.86784-10.69056 24.28928-16.91648 37.72416-11.42784 13.76256 5.44768 21.77024 18.944 27.48416 31.8464 3.46112 1.2288 6.84032 2.72384 10.1376 4.4032-27.9552-79.19616-78.76608-150.24128-145.26464-201.66656A437.248 437.248 0 0 0 562.146099 76.1856c-14.1312-1.61792-28.28288-2.88768-42.41408-2.12992zM157.317939 411.0336c-3.6864 8.23296-9.66656 15.64672-18.04288 19.39456a52.224 52.224 0 0 1-56.81152-8.82688c-14.15168 69.05856-12.00128 141.53728 7.31136 209.408a438.02624 438.02624 0 0 0 119.66464 198.02112 437.8624 437.8624 0 0 0 211.98848 111.59552c6.32832 1.04448 12.94336 3.85024 19.29216 1.39264 17.22368-5.2224 35.36896-6.61504 53.28896-6.47168-3.19488-25.66144-3.60448-51.58912-3.56352-77.4144-32.01024-24.04352-63.32416-50.11456-87.10144-82.6368-7.51616-10.93632-14.60224-23.06048-15.4624-36.61824-0.63488-19.80416 2.68288-39.424 5.34528-59.00288 0.14336-3.97312 1.55648-9.56416-2.39616-12.14464-16.65024-2.17088-32.39936 6.06208-48.90624 6.41024a10.752 10.752 0 0 1-10.6496-7.2704c-8.13056-20.66432-22.15936-39.23968-40.87808-51.44576-5.89824-3.72736-12.16512-7.76192-19.37408-7.94624-13.04576-0.69632-26.07104-5.14048-35.92192-13.9264-13.39392-11.73504-20.39808-28.89728-24.63744-45.81376-7.8848-33.09568-7.39328-67.35872-7.84384-101.13024-0.02048-7.84384-4.62848-14.99136-11.14112-19.10784-10.71104-6.84032-23.10144-10.24-34.16064-16.46592z m784.9984 40.81664c4.17792 20.74624 7.00416 41.79968 7.4752 62.95552 2.02752-31.58016-2.41664-63.20128-8.47872-94.16704 0.34816 10.40384-1.49504 20.97152 1.00352 31.21152z" fill="#73ABE6" p-id="5236"></path></svg>