<?xml version="1.0" standalone="no"?><!DOCTYPE svg PUBLIC "-//W3C//DTD SVG 1.1//EN" "http://www.w3.org/Graphics/SVG/1.1/DTD/svg11.dtd"><svg t="1765349570420" class="icon" viewBox="0 0 1160 1024" version="1.1" xmlns="http://www.w3.org/2000/svg" p-id="28593" xmlns:xlink="http://www.w3.org/1999/xlink" width="226.5625" height="200"><path d="M238.3872 235.861333a235.52 235.52 0 1 0 470.971733 0 235.52 235.52 0 0 0-470.971733 0z" fill="#69B661" p-id="28594"></path><path d="M586.683733 484.693333H401.6128A387.754667 387.754667 0 0 0 13.653333 872.448c0 64.7168 52.565333 117.213867 117.213867 117.213867h704.238933c50.858667 0 92.023467-41.1648 92.023467-92.023467v-72.4992A340.650667 340.650667 0 0 0 586.683733 484.693333z m152.7808-250.6752c0 62.2592-22.664533 119.1936-60.279466 163.0208a13.1072 13.1072 0 0 0 0.546133 17.6128 179.336533 179.336533 0 0 0 308.155733-125.883733 179.746133 179.746133 0 0 0-177.220266-177.9712 177.9712 177.9712 0 0 0-76.8 16.247467 17.681067 17.681067 0 0 0-9.352534 21.845333c9.762133 26.4192 14.9504 55.0912 14.9504 85.128533z" fill="#69B661" p-id="28595"></path><path d="M840.772267 498.551467h-51.677867c-10.581333 0-14.404267 13.858133-5.393067 19.319466a351.0272 351.0272 0 0 1 172.168534 302.2848v74.752c0 20.138667-6.280533 38.843733-17.066667 54.272-4.778667 6.826667 0 16.315733 8.3968 16.315734h123.221333c46.8992 0 85.060267-38.161067 85.060267-85.128534v-66.901333a314.7776 314.7776 0 0 0-314.709333-314.914133z" fill="#69B661" p-id="28596"></path></svg>