<?xml version="1.0" standalone="no"?><!DOCTYPE svg PUBLIC "-//W3C//DTD SVG 1.1//EN" "http://www.w3.org/Graphics/SVG/1.1/DTD/svg11.dtd"><svg t="1765353915827" class="icon" viewBox="0 0 1024 1024" version="1.1" xmlns="http://www.w3.org/2000/svg" p-id="91953" xmlns:xlink="http://www.w3.org/1999/xlink" width="200" height="200"><path d="M841.142857 257.828571H210.285714c-45.714286 0-82.285714 36.571429-82.285714 82.285715V713.142857c0 45.714286 36.571429 82.285714 82.285714 82.285714H841.142857c45.714286 0 82.285714-36.571429 82.285714-82.285714V340.114286c0-45.714286-36.571429-82.285714-82.285714-82.285715z m27.428572 453.485715c0 14.628571-12.8 27.428571-27.428572 27.428571H210.285714c-14.628571 0-27.428571-12.8-27.428571-27.428571V340.114286c0-14.628571 12.8-27.428571 27.428571-27.428572H841.142857c14.628571 0 27.428571 12.8 27.428572 27.428572v371.2z m-354.742858-155.428572l-47.542857 126.171429h23.771429l12.8-32.914286h53.028571l10.971429 32.914286h25.6l-47.542857-126.171429h-31.085715z m-3.657142 73.142857l18.285714-51.2h1.828571l18.285715 51.2h-38.4z m126.171428-20.114285l-31.085714-53.028572h-27.428572l45.714286 74.971429v51.2h23.771429v-51.2l45.714285-74.971429h-27.428571l-29.257143 53.028572z m-219.428571-53.028572h-40.228572v126.171429h23.771429V640h16.457143c34.742857 0 49.371429-10.971429 49.371428-43.885714 0-29.257143-10.971429-40.228571-49.371428-40.228572z m-1.828572 65.828572H402.285714v-47.542857h12.8c20.114286 0 27.428571 5.485714 27.428572 23.771428s-7.314286 23.771429-27.428572 23.771429z m177.371429-144.457143c1.828571-20.114286-12.8-36.571429-32.914286-38.4v-1.828572c16.457143-1.828571 27.428571-18.285714 27.428572-34.742857 0-31.085714-14.628571-45.714286-67.657143-45.714285H457.142857v168.228571h67.657143c53.028571 1.828571 67.657143-16.457143 67.657143-47.542857z m-95.085714 20.114286v-109.714286h14.628571c25.6 0 36.571429 1.828571 36.571429 20.114286 0 14.628571-7.314286 18.285714-25.6 20.114285-1.828571 0-3.657143 1.828571-3.657143 3.657143v18.285714c0 1.828571 1.828571 3.657143 3.657143 3.657143 23.771429 0 31.085714 7.314286 31.085714 21.942857 0 16.457143-7.314286 21.942857-36.571429 21.942858h-20.114285z" fill="#00A391" p-id="91954"></path></svg>