<?xml version="1.0" standalone="no"?><!DOCTYPE svg PUBLIC "-//W3C//DTD SVG 1.1//EN" "http://www.w3.org/Graphics/SVG/1.1/DTD/svg11.dtd"><svg t="1765290062311" class="icon" viewBox="0 0 1024 1024" version="1.1" xmlns="http://www.w3.org/2000/svg" p-id="16368" xmlns:xlink="http://www.w3.org/1999/xlink" width="200" height="200"><path d="M986.085744 427.349333l-84.33559-73.307897V259.150769a33.870769 33.870769 0 1 0-67.741539 0v36.023795L534.239179 34.579692l-0.052512-0.052513a32.768 32.768 0 0 0-8.428308-5.356307l-0.157538-0.078769a34.894769 34.894769 0 0 0-1.260308-0.525129c-0.105026 0-0.183795-0.052513-0.288821-0.105025a33.529436 33.529436 0 0 0-1.129025-0.393846l-0.446359-0.157539-1.024-0.315077-0.577641-0.157538-0.971488-0.262564-0.603897-0.131282-1.050256-0.210052c-0.183795 0-0.36759-0.052513-0.551385-0.105025a36.023795 36.023795 0 0 0-1.181538-0.157539l-0.420103-0.078769a32.899282 32.899282 0 0 0-1.470359-0.131282h-0.131282a33.844513 33.844513 0 0 0-15.753846 2.599385c-0.078769 0-0.131282 0.052513-0.183795 0.078769a32.925538 32.925538 0 0 0-1.050256 0.472615l-0.525129 0.262564-0.735179 0.36759-0.787692 0.420103-0.498872 0.28882a35.393641 35.393641 0 0 0-0.971487 0.577641l-0.315077 0.210051a33.083077 33.083077 0 0 0-1.129026 0.761436l-0.183795 0.131282-1.207795 0.892718-0.183795 0.157539-1.129025 0.94523-0.078769 0.052513-310.823385 270.178462V270.441026a33.870769 33.870769 0 1 0-67.741539 0v90.374564c0 0.918974 0.052513 1.837949 0.131282 2.730666l-73.412923 63.803077a33.870769 33.870769 0 1 0 44.478359 51.147488L512 105.051897l429.633641 373.444924a33.792 33.792 0 0 0 47.786667-3.334565 33.870769 33.870769 0 0 0-3.334564-47.786666z m-112.613744 53.720616a33.870769 33.870769 0 0 0-33.870769 33.870769v336.685949c0 42.456615-29.223385 78.349128-63.803077 78.349128H248.201846c-34.579692 0-63.803077-35.892513-63.803077-78.349128V514.966974a33.870769 33.870769 0 1 0-67.767795 0v336.659693C116.630974 932.181333 175.655385 997.74359 248.201846 997.74359h527.596308c72.546462 0 131.570872-65.562256 131.570872-146.116923V514.966974a33.870769 33.870769 0 0 0-33.87077-33.897025z"  p-id="16369"></path><path d="M379.746462 395.474051a33.870769 33.870769 0 0 0-33.87077 33.87077v33.083076a33.870769 33.870769 0 1 0 67.741539 0v-33.083076a33.870769 33.870769 0 0 0-33.870769-33.87077zM644.253538 395.474051a33.870769 33.870769 0 0 0-33.870769 33.87077v33.083076a33.870769 33.870769 0 1 0 67.741539 0v-33.083076a33.870769 33.870769 0 0 0-33.87077-33.87077zM595.337846 548.522667a33.897026 33.897026 0 0 0-46.841436 10.24c-0.131282 0.236308-14.493538 21.13641-36.837743 21.13641-21.714051 0-35.209846-19.692308-36.102564-21.031385a33.870769 33.870769 0 0 0-57.396513 36.076308c12.182974 19.587282 45.554872 52.722872 93.47282 52.722872 47.707897 0 81.499897-32.873026 93.945436-52.329026 10.108718-15.753846 5.513846-36.706462-10.24-46.815179z" p-id="16370"></path></svg>