<?xml version="1.0" standalone="no"?><!DOCTYPE svg PUBLIC "-//W3C//DTD SVG 1.1//EN" "http://www.w3.org/Graphics/SVG/1.1/DTD/svg11.dtd"><svg t="1765289859726" class="icon" viewBox="0 0 1024 1024" version="1.1" xmlns="http://www.w3.org/2000/svg" p-id="11157" xmlns:xlink="http://www.w3.org/1999/xlink" width="200" height="200"><path d="M192 240c0 6.576 22.864 24.512 365.904 384C848 928 864 960 880 960s80-64 80-80-32-32-336-322.096C264.512 214.864 246.576 192 240 192c-16 0-48 32-48 48z" p-id="11158"></path><path d="M784.336 108.928A569.184 569.184 0 0 0 664.416 96C350.48 96 96 350.48 96 664.416c0 41.184 4.608 81.232 12.928 119.92C176 480 480 176 784.336 108.928zM208 896l-32 64-32-64 32-64 32 64z m672-720l-32 64 32 64 32-64-32-64zM752 400l-32 64 32 64 32-64-32-64zM304 624l-48 96 48 96 48-96-48-96z" p-id="11159"></path></svg>