<?xml version="1.0" standalone="no"?><!DOCTYPE svg PUBLIC "-//W3C//DTD SVG 1.1//EN" "http://www.w3.org/Graphics/SVG/1.1/DTD/svg11.dtd"><svg t="1765290213662" class="icon" viewBox="0 0 1024 1024" version="1.1" xmlns="http://www.w3.org/2000/svg" p-id="21131" xmlns:xlink="http://www.w3.org/1999/xlink" width="200" height="200"><path d="M719.5648 109.0048H305.8176a196.352 196.352 0 0 0-196.1472 196.096v413.7472a196.352 196.352 0 0 0 196.1472 196.1472h413.7472a196.352 196.352 0 0 0 196.1472-196.1472V305.1008a196.352 196.352 0 0 0-196.1472-196.096z m0 734.3104H305.8176a124.6208 124.6208 0 0 1-124.4672-124.4672V305.1008a124.5696 124.5696 0 0 1 124.4672-124.416h413.7472a124.5696 124.5696 0 0 1 124.4672 124.416v32.3072h-192.6144a174.592 174.592 0 0 0 0 349.1328h192.6144v32.3072a124.6208 124.6208 0 0 1-124.4672 124.4672z m124.4672-228.4544h-192.6144a102.912 102.912 0 0 1 0-205.7728h192.6144z"  p-id="21132"></path><path d="M654.885352 511.984715m-5.04071 50.951263a51.2 51.2 0 1 0 10.08142-101.902527 51.2 51.2 0 1 0-10.08142 101.902527Z"  p-id="21133"></path></svg>