<?xml version="1.0" standalone="no"?><!DOCTYPE svg PUBLIC "-//W3C//DTD SVG 1.1//EN" "http://www.w3.org/Graphics/SVG/1.1/DTD/svg11.dtd"><svg height="1024" node-id="1" sillyvg="true" template-height="1024" template-width="1024" version="1.1" viewBox="0 0 1024 1024" width="1024" xmlns="http://www.w3.org/2000/svg" xmlns:xlink="http://www.w3.org/1999/xlink"><defs node-id="25"></defs><g node-id="78"><g node-id="79"><path d="M 626.28 692.97 L 688.28 682.85 C 696.16 681.56 704.22 682.54 711.60 685.60 C 721.36 689.65 737.23 691.75 749.44 671.69 C 768.43 640.49 783.01 468.92 706.71 404.83 C 636.03 345.46 513.83 244.17 427.48 283.79 C 415.49 289.29 407.26 300.66 405.37 313.72 C 399.68 353.11 382.02 450.19 338.46 523.85 L 284.88 654.06 C 284.88 654.06 233.34 746.29 276.74 749.00 C 306.94 750.89 349.61 736.03 372.78 726.82 C 381.31 723.43 390.41 721.51 399.58 721.99 C 407.33 722.40 418.72 720.58 431.03 710.51 C 452.24 693.15 476.20 731.55 502.89 716.11 C 505.58 714.55 507.77 712.25 509.43 709.63 C 516.88 697.88 542.47 660.50 560.80 670.43 C 568.09 674.38 570.06 684.03 565.77 691.12 C 554.78 709.32 533.76 747.64 571.41 742.05 C 584.08 740.67 592.28 727.51 597.13 715.72 C 602.13 703.58 613.31 695.08 626.27 692.97 Z" fill="#f5af65" fill-rule="nonzero" group-id="1,2" node-id="32" stroke="none" target-height="506.72003" target-width="549.67" target-x="233.34001" target-y="244.17"></path><path d="M 626.28 692.97 L 688.28 682.85 C 696.16 681.56 704.22 682.54 711.60 685.60 C 721.36 689.65 737.23 691.75 749.44 671.69 C 768.43 640.49 783.01 468.92 706.71 404.83 C 636.03 345.46 513.83 244.17 427.48 283.79 C 415.49 289.29 407.26 300.66 405.37 313.72 C 399.68 353.11 382.02 450.19 338.46 523.85 L 284.88 654.06 C 284.88 654.06 233.34 746.29 276.74 749.00 C 306.94 750.89 349.61 736.03 372.78 726.82 C 381.31 723.43 390.41 721.51 399.58 721.99 C 407.33 722.40 418.72 720.58 431.03 710.51 C 452.24 693.15 476.20 731.55 502.89 716.11 C 505.58 714.55 507.77 712.25 509.43 709.63 C 516.88 697.88 542.47 660.50 560.80 670.43 C 568.09 674.38 570.06 684.03 565.77 691.12 C 554.78 709.32 533.76 747.64 571.41 742.05 C 584.08 740.67 592.28 727.51 597.13 715.72 C 602.13 703.58 613.31 695.08 626.27 692.97 Z" fill="none" group-id="1,2" node-id="34" stroke="#523510" stroke-linecap="round" stroke-width="11.95" target-height="506.72003" target-width="549.67" target-x="233.34001" target-y="244.17"></path><path d="M 711.60 685.60 C 721.36 689.65 737.23 691.75 749.44 671.69 C 768.43 640.49 783.01 468.92 706.71 404.83 C 636.03 345.46 513.83 244.17 427.48 283.79 C 427.48 283.79 396.45 321.92 465.62 334.13 C 534.79 346.34 592.78 363.12 646.35 414.66 C 695.52 466.88 711.29 499.94 710.78 529.44 C 710.27 558.94 727.21 613.07 705.35 633.71 C 674.83 662.53 711.59 685.60 711.59 685.60 Z" fill="#e58b35" fill-rule="nonzero" group-id="1,2" node-id="36" stroke="none" target-height="447.58002" target-width="386.56003" target-x="396.44998" target-y="244.17"></path><path d="M 711.60 685.60 C 721.36 689.65 737.23 691.75 749.44 671.69 C 768.43 640.49 783.01 468.92 706.71 404.83 C 636.03 345.46 513.83 244.17 427.48 283.79 C 427.48 283.79 396.45 321.92 465.62 334.13 C 534.79 346.34 592.78 363.12 646.35 414.66 C 695.52 466.88 711.29 499.94 710.78 529.44 C 710.27 558.94 727.21 613.07 705.35 633.71 C 674.83 662.53 711.59 685.60 711.59 685.60 Z" fill="none" group-id="1,2" node-id="38" stroke="#523510" stroke-linecap="round" stroke-width="11.95" target-height="447.58002" target-width="386.56003" target-x="396.44998" target-y="244.17"></path><g node-id="80"><g node-id="83"><path d="M 465.42 626.74 C 466.52 630.63 464.22 635.31 459.03 639.75 C 453.84 644.19 446.19 648.02 437.75 650.40 C 429.31 652.78 420.78 653.52 414.04 652.45 C 407.29 651.38 402.89 648.59 401.79 644.70 C 400.69 640.80 402.98 636.12 408.17 631.68 C 413.36 627.24 421.02 623.41 429.46 621.03 C 437.90 618.65 446.43 617.91 453.17 618.98 C 459.91 620.05 464.32 622.84 465.42 626.74 Z" fill="#76a23b" fill-rule="nonzero" group-id="1,2,3,6" node-id="44" stroke="none" target-height="35.608948" target-width="65.832886" target-x="400.6866" target-y="617.9127"></path></g><path d="M 473.76 538.60 C 473.76 548.43 464.77 556.40 453.67 556.40 C 442.57 556.40 433.58 548.43 433.58 538.60 C 433.58 528.77 442.57 520.80 453.67 520.80 C 464.77 520.80 473.76 528.77 473.76 538.60 Z" fill="#76a23b" fill-rule="nonzero" group-id="1,2,3" node-id="47" stroke="none" target-height="35.599976" target-width="40.179962" target-x="433.58002" target-y="520.8"></path><path d="M 635.51 449.59 C 635.51 463.92 622.99 475.53 607.54 475.53 C 592.09 475.53 579.57 463.92 579.57 449.59 C 579.57 435.26 592.09 423.65 607.54 423.65 C 622.99 423.65 635.51 435.26 635.51 449.59 Z" fill="#76a23b" fill-rule="nonzero" group-id="1,2,3" node-id="49" stroke="none" target-height="51.880035" target-width="55.93994" target-x="579.57" target-y="423.64996"></path></g><g node-id="81"><g node-id="84"><path d="M 544.91 394.98 C 550.50 407.42 549.15 422.36 541.16 436.53 C 533.16 450.69 519.18 462.92 502.29 470.51 C 467.10 486.32 429.15 478.14 417.50 452.24 C 405.86 426.34 424.95 392.52 460.13 376.71 C 477.02 369.11 495.45 366.77 511.35 370.20 C 527.25 373.63 539.32 382.54 544.91 394.98 Z" fill="#e05a48" fill-rule="nonzero" group-id="1,2,4,7" node-id="56" stroke="none" target-height="119.54727" target-width="144.63641" target-x="405.86334" target-y="366.77414"></path></g><g node-id="85"><path d="M 642.57 520.28 C 658.16 542.19 643.50 579.38 609.82 603.33 C 576.15 627.29 536.21 628.95 520.63 607.04 C 505.04 585.13 519.70 547.94 553.37 523.99 C 587.05 500.03 626.98 498.37 642.57 520.28 Z" fill="#e05a48" fill-rule="nonzero" group-id="1,2,4,8" node-id="61" stroke="none" target-height="130.58157" target-width="153.12427" target-x="505.03632" target-y="498.36874"></path></g><path d="M 347.49 530.72 C 368.84 536.75 380.31 562.35 373.09 587.90 C 365.88 613.45 342.71 629.27 321.36 623.24 C 300.00 617.21 288.54 591.61 295.76 566.06 C 302.97 540.51 326.13 524.69 347.49 530.72 Z" fill="#e05a48" fill-rule="nonzero" group-id="1,2,4,9" node-id="66" stroke="none" target-height="104.58325" target-width="91.765686" target-x="288.54007" target-y="524.68567"></path></g><g node-id="82"><path d="M 437.78 637.84 C 437.78 638.94 437.34 639.99 436.57 640.76 C 435.80 641.53 434.75 641.97 433.65 641.97 C 432.55 641.97 431.50 641.53 430.73 640.76 C 429.96 639.99 429.52 638.94 429.52 637.84 C 429.52 636.74 429.96 635.69 430.73 634.92 C 431.50 634.15 432.55 633.71 433.65 633.71 C 434.75 633.71 435.80 634.15 436.57 634.92 C 437.34 635.69 437.78 636.74 437.78 637.84 Z" fill="#f9eee0" fill-rule="nonzero" group-id="1,2,5" node-id="72" stroke="none" target-height="8.26001" target-width="8.26001" target-x="429.52" target-y="633.71"></path><path d="M 454.18 538.47 C 454.18 539.66 452.81 540.63 451.13 540.63 C 449.45 540.63 448.08 539.66 448.08 538.47 C 448.08 537.28 449.45 536.31 451.13 536.31 C 452.81 536.31 454.18 537.28 454.18 538.47 Z" fill="#f9eee0" fill-rule="nonzero" group-id="1,2,5" node-id="74" stroke="none" target-height="4.3199463" target-width="6.099945" target-x="448.08005" target-y="536.31"></path><path d="M 620.51 459.12 C 620.51 461.58 618.06 463.57 615.04 463.57 C 612.02 463.57 609.57 461.58 609.57 459.12 C 609.57 456.66 612.02 454.67 615.04 454.67 C 618.06 454.67 620.51 456.66 620.51 459.12 Z" fill="#f9eee0" fill-rule="nonzero" group-id="1,2,5" node-id="76" stroke="none" target-height="8.900055" target-width="10.939941" target-x="609.57" target-y="454.66995"></path></g></g></g></svg>